<svg width="277" height="37" viewBox="0 0 277 37" fill="none" xmlns="http://www.w3.org/2000/svg">
<g clip-path="url(#clip0_121_443)">
<path d="M0 34.92C0 34.2 0.352 33.712 1.056 33.456L2.112 33.144C2.512 33 2.8 32.824 2.976 32.616C3.168 32.392 3.264 32.096 3.264 31.728V7.152C3.264 6.8 3.168 6.512 2.976 6.288C2.8 6.064 2.512 5.88 2.112 5.736L1.056 5.424C0.352 5.168 0 4.68 0 3.96C0 3.544 0.136 3.224 0.408 3C0.696 2.76 1.128 2.64 1.704 2.64H16.344C19.272 2.64 21.936 3.072 24.336 3.936C26.752 4.8 28.832 6.04 30.576 7.656C32.32 9.272 33.664 11.2 34.608 13.44C35.552 15.664 36.024 18.16 36.024 20.928C36.024 23.936 35.304 26.592 33.864 28.896C32.44 31.2 30.416 33 27.792 34.296C25.184 35.592 22.096 36.24 18.528 36.24H1.704C1.128 36.24 0.696 36.12 0.408 35.88C0.136 35.64 0 35.32 0 34.92ZM17.424 33.408C18.784 33.408 20.016 32.984 21.12 32.136C22.224 31.272 23.096 29.904 23.736 28.032C24.392 26.144 24.72 23.672 24.72 20.616C24.72 18.184 24.504 16.032 24.072 14.16C23.656 12.288 23.032 10.704 22.2 9.408C21.384 8.112 20.4 7.136 19.248 6.48C18.096 5.808 16.792 5.472 15.336 5.472H14.232V31.104C14.232 31.904 14.432 32.488 14.832 32.856C15.248 33.224 15.84 33.408 16.608 33.408H17.424ZM50.5361 14.544V31.944C50.5361 32.504 50.5841 32.904 50.6801 33.144C50.7761 33.384 50.9441 33.552 51.1841 33.648L51.7841 33.888C52.1041 34.016 52.3281 34.184 52.4561 34.392C52.6001 34.584 52.6721 34.808 52.6721 35.064C52.6721 35.432 52.5521 35.72 52.3121 35.928C52.0721 36.136 51.6961 36.24 51.1841 36.24H40.0481C39.5361 36.24 39.1601 36.136 38.9201 35.928C38.6801 35.72 38.5601 35.432 38.5601 35.064C38.5601 34.808 38.6241 34.584 38.7521 34.392C38.8961 34.184 39.1281 34.016 39.4481 33.888L40.0481 33.648C40.2881 33.552 40.4481 33.384 40.5281 33.144C40.6241 32.904 40.6721 32.504 40.6721 31.944V19.44C40.6721 19.008 40.6081 18.704 40.4801 18.528C40.3681 18.336 40.1921 18.208 39.9521 18.144L39.3281 18C39.0401 17.92 38.8321 17.792 38.7041 17.616C38.5761 17.44 38.5121 17.224 38.5121 16.968C38.5121 16.648 38.6001 16.4 38.7761 16.224C38.9521 16.032 39.2721 15.848 39.7361 15.672L45.8561 13.512C46.5921 13.224 47.1601 13.032 47.5601 12.936C47.9601 12.824 48.3281 12.768 48.6641 12.768C49.2881 12.768 49.7521 12.936 50.0561 13.272C50.3761 13.608 50.5361 14.032 50.5361 14.544ZM45.1841 10.8C43.4561 10.8 42.0881 10.376 41.0801 9.528C40.0721 8.68 39.5681 7.544 39.5681 6.12C39.5681 4.712 40.0721 3.592 41.0801 2.76C42.0881 1.912 43.4561 1.488 45.1841 1.488C46.9121 1.488 48.2801 1.912 49.2881 2.76C50.3121 3.592 50.8241 4.712 50.8241 6.12C50.8241 7.544 50.3121 8.68 49.2881 9.528C48.2801 10.376 46.9121 10.8 45.1841 10.8ZM77.2747 3.96C77.2747 3.544 77.4107 3.224 77.6827 3C77.9547 2.76 78.3707 2.64 78.9307 2.64H86.6587C87.2347 2.64 87.6587 2.76 87.9307 3C88.2027 3.224 88.3387 3.544 88.3387 3.96C88.3387 4.264 88.2507 4.52 88.0747 4.728C87.9147 4.92 87.6667 5.104 87.3307 5.28L86.6587 5.568C86.0347 5.872 85.4907 6.32 85.0267 6.912C84.5787 7.488 84.1707 8.384 83.8027 9.6L77.2987 30.456C77.0587 31.176 76.8987 31.752 76.8187 32.184C76.7387 32.616 76.6987 33.056 76.6987 33.504V34.992C76.6987 35.392 76.5707 35.704 76.3147 35.928C76.0587 36.136 75.7387 36.24 75.3547 36.24H66.4507C66.0827 36.24 65.7707 36.136 65.5147 35.928C65.2747 35.704 65.1547 35.368 65.1547 34.92V33.48C65.1547 33.208 65.1067 32.888 65.0107 32.52C64.9147 32.136 64.7947 31.728 64.6507 31.296L56.8027 7.536C56.6107 6.992 56.4107 6.592 56.2027 6.336C56.0107 6.08 55.7307 5.864 55.3627 5.688L54.6907 5.352C54.0827 5.048 53.7787 4.584 53.7787 3.96C53.7787 3.544 53.9147 3.224 54.1867 3C54.4747 2.76 54.9067 2.64 55.4827 2.64H69.3307C69.9227 2.64 70.3547 2.76 70.6267 3C70.8987 3.224 71.0347 3.544 71.0347 3.96C71.0347 4.296 70.9467 4.56 70.7707 4.752C70.5947 4.944 70.3227 5.12 69.9547 5.28L69.1627 5.616C68.7467 5.792 68.4827 6.064 68.3707 6.432C68.2587 6.8 68.3227 7.336 68.5627 8.04L75.6907 30.264L73.1227 32.832L80.5867 9.312C80.8587 8.432 80.8827 7.688 80.6587 7.08C80.4347 6.472 79.8587 5.968 78.9307 5.568L78.3067 5.28C77.9707 5.12 77.7147 4.952 77.5387 4.776C77.3627 4.584 77.2747 4.312 77.2747 3.96ZM100.21 12.768C102.834 12.768 105.13 13.28 107.098 14.304C109.082 15.328 110.626 16.752 111.73 18.576C112.834 20.4 113.386 22.512 113.386 24.912C113.386 27.168 112.81 29.2 111.658 31.008C110.506 32.816 108.914 34.248 106.882 35.304C104.85 36.344 102.498 36.864 99.8265 36.864C97.2025 36.864 94.8985 36.352 92.9145 35.328C90.9465 34.304 89.4105 32.888 88.3065 31.08C87.2185 29.256 86.6745 27.152 86.6745 24.768C86.6745 22.48 87.2505 20.432 88.4025 18.624C89.5545 16.816 91.1465 15.392 93.1785 14.352C95.2105 13.296 97.5545 12.768 100.21 12.768ZM101.89 34.032C102.482 33.888 102.93 33.456 103.234 32.736C103.554 32.016 103.698 30.952 103.666 29.544C103.65 28.136 103.426 26.36 102.994 24.216C102.594 22.136 102.138 20.44 101.626 19.128C101.13 17.816 100.586 16.872 99.9945 16.296C99.4185 15.72 98.8105 15.504 98.1705 15.648C97.5785 15.776 97.1225 16.208 96.8025 16.944C96.4985 17.664 96.3625 18.72 96.3945 20.112C96.4425 21.504 96.6665 23.28 97.0665 25.44C97.4825 27.504 97.9385 29.2 98.4345 30.528C98.9465 31.84 99.4905 32.784 100.066 33.36C100.642 33.936 101.25 34.16 101.89 34.032ZM127.764 1.776V31.944C127.764 32.504 127.804 32.904 127.884 33.144C127.98 33.384 128.148 33.552 128.388 33.648L128.988 33.888C129.308 34.016 129.532 34.184 129.66 34.392C129.804 34.584 129.876 34.808 129.876 35.064C129.876 35.432 129.756 35.72 129.516 35.928C129.276 36.136 128.9 36.24 128.388 36.24H117.252C116.74 36.24 116.364 36.136 116.124 35.928C115.884 35.72 115.764 35.432 115.764 35.064C115.764 34.808 115.828 34.584 115.956 34.392C116.1 34.184 116.332 34.016 116.652 33.888L117.252 33.648C117.492 33.552 117.66 33.384 117.756 33.144C117.852 32.904 117.9 32.504 117.9 31.944V6.672C117.9 6.24 117.836 5.936 117.708 5.76C117.58 5.568 117.396 5.44 117.156 5.376L116.556 5.256C116.268 5.16 116.052 5.032 115.908 4.872C115.78 4.696 115.716 4.472 115.716 4.2C115.716 3.88 115.804 3.632 115.98 3.456C116.156 3.264 116.484 3.08 116.964 2.904L123.084 0.744C123.804 0.472001 124.364 0.280002 124.764 0.168002C125.18 0.0560007 125.548 0 125.868 0C126.492 0 126.964 0.168 127.284 0.504001C127.604 0.840001 127.764 1.264 127.764 1.776ZM155.119 19.968C155.119 21.184 154.679 22.2 153.799 23.016C152.935 23.832 151.767 24.24 150.295 24.24C148.855 24.24 147.767 23.848 147.031 23.064C146.295 22.28 145.927 21.256 145.927 19.992V18.888C145.927 17.864 145.719 17.064 145.303 16.488C144.903 15.896 144.375 15.6 143.719 15.6C143.159 15.6 142.639 15.824 142.159 16.272C141.679 16.72 141.295 17.392 141.007 18.288C140.735 19.184 140.599 20.312 140.599 21.672C140.599 23.576 140.903 25.168 141.511 26.448C142.119 27.728 142.959 28.696 144.031 29.352C145.103 29.992 146.327 30.312 147.703 30.312C148.807 30.312 149.783 30.168 150.631 29.88C151.495 29.576 152.279 29.016 152.983 28.2C153.351 27.864 153.631 27.64 153.823 27.528C154.015 27.4 154.207 27.336 154.399 27.336C154.671 27.336 154.863 27.472 154.975 27.744C155.103 28 155.167 28.32 155.167 28.704C155.103 30.192 154.599 31.56 153.655 32.808C152.727 34.04 151.439 35.024 149.791 35.76C148.159 36.496 146.263 36.864 144.103 36.864C141.767 36.864 139.663 36.4 137.791 35.472C135.935 34.544 134.463 33.232 133.375 31.536C132.303 29.824 131.767 27.808 131.767 25.488C131.767 23.04 132.303 20.864 133.375 18.96C134.447 17.04 135.959 15.528 137.911 14.424C139.863 13.32 142.159 12.768 144.799 12.768C146.959 12.768 148.807 13.088 150.343 13.728C151.879 14.368 153.055 15.232 153.871 16.32C154.703 17.408 155.119 18.624 155.119 19.968ZM171.759 33.168V32.664L171.063 32.736V16.8C171.063 16.208 170.903 15.736 170.583 15.384C170.263 15.016 169.839 14.832 169.311 14.832C168.863 14.832 168.479 14.944 168.159 15.168C167.855 15.392 167.703 15.696 167.703 16.08V18.696C167.703 19.976 167.255 20.992 166.359 21.744C165.463 22.496 164.199 22.872 162.567 22.872C161.223 22.872 160.207 22.576 159.519 21.984C158.847 21.392 158.511 20.552 158.511 19.464C158.511 18.44 158.967 17.416 159.879 16.392C160.807 15.368 162.191 14.52 164.031 13.848C165.887 13.16 168.207 12.816 170.991 12.816C174.319 12.816 176.791 13.432 178.407 14.664C180.039 15.896 180.855 17.592 180.855 19.752V31.296C180.855 31.616 180.927 31.88 181.071 32.088C181.231 32.28 181.463 32.376 181.767 32.376C182.039 32.376 182.263 32.304 182.439 32.16C182.615 32 182.767 31.808 182.895 31.584C182.991 31.488 183.087 31.408 183.183 31.344C183.279 31.264 183.399 31.224 183.543 31.224C183.767 31.224 183.927 31.312 184.023 31.488C184.119 31.648 184.167 31.856 184.167 32.112C184.167 32.736 183.927 33.424 183.447 34.176C182.967 34.912 182.231 35.544 181.239 36.072C180.263 36.6 179.023 36.864 177.519 36.864C175.759 36.864 174.359 36.512 173.319 35.808C172.279 35.104 171.759 34.224 171.759 33.168ZM157.551 31.2C157.551 29.056 158.503 27.368 160.407 26.136C162.311 24.904 165.079 24.288 168.711 24.288C169.607 24.288 170.375 24.352 171.015 24.48C171.655 24.608 172.191 24.8 172.623 25.056L171.927 26.736C171.575 26.544 171.247 26.408 170.943 26.328C170.639 26.248 170.303 26.208 169.935 26.208C169.167 26.208 168.559 26.488 168.111 27.048C167.663 27.608 167.439 28.44 167.439 29.544C167.439 30.648 167.663 31.48 168.111 32.04C168.559 32.6 169.143 32.88 169.863 32.88C170.311 32.88 170.735 32.768 171.135 32.544C171.535 32.32 171.839 32.048 172.047 31.728L172.575 33.288C171.839 34.44 170.759 35.328 169.335 35.952C167.927 36.56 166.415 36.864 164.799 36.864C162.639 36.864 160.887 36.328 159.543 35.256C158.215 34.168 157.551 32.816 157.551 31.2Z" fill="#99FD53"/>
<path d="M191.73 36.912C190.706 36.912 189.77 36.656 188.922 36.144C188.09 35.616 187.426 34.92 186.93 34.056C186.45 33.176 186.21 32.232 186.21 31.224C186.21 30.184 186.45 29.248 186.93 28.416C187.426 27.568 188.09 26.888 188.922 26.376C189.77 25.864 190.706 25.608 191.73 25.608C192.786 25.608 193.73 25.864 194.562 26.376C195.41 26.888 196.074 27.568 196.554 28.416C197.05 29.248 197.298 30.184 197.298 31.224C197.298 32.232 197.05 33.176 196.554 34.056C196.074 34.92 195.41 35.616 194.562 36.144C193.73 36.656 192.786 36.912 191.73 36.912ZM212.489 14.544V31.944C212.489 32.504 212.537 32.904 212.633 33.144C212.729 33.368 212.897 33.536 213.137 33.648L213.713 33.888C214.161 34.144 214.385 34.512 214.385 34.992C214.385 35.824 213.881 36.24 212.873 36.24H202.001C201.489 36.24 201.113 36.136 200.873 35.928C200.633 35.72 200.513 35.432 200.513 35.064C200.513 34.808 200.577 34.584 200.705 34.392C200.849 34.184 201.081 34.016 201.401 33.888L202.001 33.648C202.241 33.552 202.401 33.384 202.481 33.144C202.577 32.904 202.625 32.504 202.625 31.944V19.44C202.625 19.008 202.561 18.704 202.433 18.528C202.321 18.336 202.145 18.208 201.905 18.144L201.281 18C200.993 17.92 200.785 17.792 200.657 17.616C200.529 17.44 200.465 17.224 200.465 16.968C200.465 16.648 200.553 16.4 200.729 16.224C200.905 16.032 201.225 15.848 201.689 15.672L207.809 13.512C208.497 13.24 209.049 13.048 209.465 12.936C209.881 12.824 210.289 12.768 210.689 12.768C211.281 12.768 211.729 12.936 212.033 13.272C212.337 13.608 212.489 14.032 212.489 14.544ZM211.673 20.304L210.449 19.008L211.217 18.312C213.361 16.344 215.201 14.928 216.737 14.064C218.289 13.2 219.713 12.768 221.009 12.768C222.945 12.768 224.457 13.416 225.545 14.712C226.649 16.008 227.305 17.744 227.513 19.92L228.689 31.944C228.753 32.504 228.817 32.904 228.881 33.144C228.945 33.384 229.097 33.552 229.337 33.648L229.937 33.888C230.257 34.016 230.481 34.184 230.609 34.392C230.753 34.584 230.825 34.808 230.825 35.064C230.825 35.432 230.705 35.72 230.465 35.928C230.225 36.136 229.849 36.24 229.337 36.24H218.321C217.313 36.24 216.809 35.824 216.809 34.992C216.809 34.512 217.033 34.144 217.481 33.888L218.057 33.648C218.297 33.536 218.473 33.368 218.585 33.144C218.713 32.904 218.753 32.504 218.705 31.944L217.697 21.24C217.617 20.28 217.393 19.56 217.025 19.08C216.657 18.6 216.097 18.36 215.345 18.36C214.865 18.36 214.377 18.464 213.881 18.672C213.401 18.88 212.945 19.176 212.513 19.56L211.673 20.304ZM255.961 22.224C255.961 23.136 255.705 23.848 255.193 24.36C254.697 24.872 253.977 25.128 253.033 25.128H238.633V23.04H245.089C245.857 23.04 246.241 22.672 246.241 21.936C246.241 19.664 245.993 18.04 245.497 17.064C245.001 16.088 244.385 15.6 243.649 15.6C243.121 15.6 242.641 15.816 242.209 16.248C241.777 16.664 241.433 17.328 241.177 18.24C240.921 19.152 240.793 20.336 240.793 21.792C240.793 24.784 241.449 26.976 242.761 28.368C244.073 29.744 245.857 30.432 248.113 30.432C249.329 30.432 250.393 30.248 251.305 29.88C252.217 29.496 253.009 28.856 253.681 27.96C254.033 27.624 254.305 27.4 254.497 27.288C254.705 27.16 254.897 27.096 255.073 27.096C255.345 27.096 255.545 27.224 255.673 27.48C255.801 27.736 255.865 28.056 255.865 28.44C255.865 29.96 255.385 31.36 254.425 32.64C253.465 33.92 252.137 34.944 250.441 35.712C248.761 36.48 246.809 36.864 244.585 36.864C242.185 36.864 240.033 36.384 238.129 35.424C236.241 34.464 234.745 33.128 233.641 31.416C232.553 29.704 232.009 27.704 232.009 25.416C232.009 22.856 232.513 20.632 233.521 18.744C234.545 16.84 236.025 15.368 237.961 14.328C239.913 13.288 242.249 12.768 244.969 12.768C247.353 12.768 249.361 13.184 250.993 14.016C252.641 14.832 253.881 15.952 254.713 17.376C255.545 18.784 255.961 20.4 255.961 22.224ZM259.271 16.104L258.287 15.744C257.983 15.632 257.759 15.488 257.615 15.312C257.471 15.12 257.399 14.888 257.399 14.616C257.399 14.248 257.519 13.96 257.759 13.752C258.015 13.544 258.343 13.44 258.743 13.44H260.207C260.447 13.44 260.679 13.376 260.903 13.248C261.127 13.12 261.415 12.888 261.767 12.552L266.327 8.376C266.775 7.944 267.191 7.624 267.575 7.416C267.959 7.192 268.327 7.08 268.679 7.08C269.079 7.08 269.391 7.208 269.615 7.464C269.839 7.72 269.951 8.096 269.951 8.592V27.888C269.951 29.104 270.159 30.024 270.575 30.648C271.007 31.272 271.607 31.584 272.375 31.584C272.919 31.584 273.343 31.456 273.647 31.2C273.967 30.944 274.231 30.64 274.439 30.288C274.647 29.92 274.855 29.576 275.063 29.256C275.287 28.936 275.559 28.712 275.879 28.584C276.135 28.568 276.351 28.648 276.527 28.824C276.703 29 276.783 29.312 276.767 29.76C276.719 31.136 276.327 32.36 275.591 33.432C274.871 34.504 273.871 35.344 272.591 35.952C271.311 36.56 269.831 36.864 268.151 36.864C265.591 36.864 263.615 36.256 262.223 35.04C260.847 33.824 260.159 31.968 260.159 29.472V17.424C260.159 17.024 260.087 16.736 259.943 16.56C259.799 16.384 259.575 16.232 259.271 16.104ZM266.663 16.272L266.711 13.44H275.279C275.695 13.44 276.023 13.528 276.263 13.704C276.503 13.88 276.623 14.136 276.623 14.472C276.623 14.984 276.375 15.416 275.879 15.768C275.383 16.104 274.575 16.272 273.455 16.272H266.663Z" fill="#091413"/>
</g>
<defs>
<clipPath id="clip0_121_443">
<rect width="277" height="37" fill="white"/>
</clipPath>
</defs>
</svg>
