<svg width="100" height="100" viewBox="0 0 100 100" fill="none" xmlns="http://www.w3.org/2000/svg">
<path d="M14.492 66.18C14.492 65.46 14.844 64.972 15.548 64.716L16.604 64.404C17.004 64.26 17.292 64.084 17.468 63.876C17.66 63.652 17.756 63.356 17.756 62.988V38.412C17.756 38.06 17.66 37.772 17.468 37.548C17.292 37.324 17.004 37.14 16.604 36.996L15.548 36.684C14.844 36.428 14.492 35.94 14.492 35.22C14.492 34.804 14.628 34.484 14.9 34.26C15.188 34.02 15.62 33.9 16.196 33.9H30.836C33.764 33.9 36.428 34.332 38.828 35.196C41.244 36.06 43.324 37.3 45.068 38.916C46.812 40.532 48.156 42.46 49.1 44.7C50.044 46.924 50.516 49.42 50.516 52.188C50.516 55.196 49.796 57.852 48.356 60.156C46.932 62.46 44.908 64.26 42.284 65.556C39.676 66.852 36.588 67.5 33.02 67.5H16.196C15.62 67.5 15.188 67.38 14.9 67.14C14.628 66.9 14.492 66.58 14.492 66.18ZM31.916 64.668C33.276 64.668 34.508 64.244 35.612 63.396C36.716 62.532 37.588 61.164 38.228 59.292C38.884 57.404 39.212 54.932 39.212 51.876C39.212 49.444 38.996 47.292 38.564 45.42C38.148 43.548 37.524 41.964 36.692 40.668C35.876 39.372 34.892 38.396 33.74 37.74C32.588 37.068 31.284 36.732 29.828 36.732H28.724V62.364C28.724 63.164 28.924 63.748 29.324 64.116C29.74 64.484 30.332 64.668 31.1 64.668H31.916Z" fill="#99FD53"/>
<path d="M75.8761 35.22C75.8761 34.804 76.0121 34.484 76.2841 34.26C76.5561 34.02 76.9721 33.9 77.5321 33.9H85.2601C85.8361 33.9 86.2601 34.02 86.5321 34.26C86.8041 34.484 86.9401 34.804 86.9401 35.22C86.9401 35.524 86.8521 35.78 86.6761 35.988C86.5161 36.18 86.2681 36.364 85.9321 36.54L85.2601 36.828C84.6361 37.132 84.0921 37.58 83.6281 38.172C83.1801 38.748 82.7721 39.644 82.4041 40.86L75.9001 61.716C75.6601 62.436 75.5001 63.012 75.4201 63.444C75.3401 63.876 75.3001 64.316 75.3001 64.764V66.252C75.3001 66.652 75.1721 66.964 74.9161 67.188C74.6601 67.396 74.3401 67.5 73.9561 67.5H65.0521C64.6841 67.5 64.3721 67.396 64.1161 67.188C63.8761 66.964 63.7561 66.628 63.7561 66.18V64.74C63.7561 64.468 63.7081 64.148 63.6121 63.78C63.5161 63.396 63.3961 62.988 63.2521 62.556L55.4041 38.796C55.2121 38.252 55.0121 37.852 54.8041 37.596C54.6121 37.34 54.3321 37.124 53.9641 36.948L53.2921 36.612C52.6841 36.308 52.3801 35.844 52.3801 35.22C52.3801 34.804 52.5161 34.484 52.7881 34.26C53.0761 34.02 53.5081 33.9 54.0841 33.9H67.9321C68.5241 33.9 68.9561 34.02 69.2281 34.26C69.5001 34.484 69.6361 34.804 69.6361 35.22C69.6361 35.556 69.5481 35.82 69.3721 36.012C69.1961 36.204 68.9241 36.38 68.5561 36.54L67.7641 36.876C67.3481 37.052 67.0841 37.324 66.9721 37.692C66.8601 38.06 66.9241 38.596 67.1641 39.3L74.2921 61.524L71.7241 64.092L79.1881 40.572C79.4601 39.692 79.4841 38.948 79.2601 38.34C79.0361 37.732 78.4601 37.228 77.5321 36.828L76.9081 36.54C76.5721 36.38 76.3161 36.212 76.1401 36.036C75.9641 35.844 75.8761 35.572 75.8761 35.22Z" fill="#091413"/>
</svg>
